<?xml version="1.0" encoding="UTF-8" standalone="no"?>
<!DOCTYPE svg PUBLIC "-//W3C//DTD SVG 1.1//EN"
 "http://www.w3.org/Graphics/SVG/1.1/DTD/svg11.dtd">
<!-- Generated by graphviz version 2.47.3 (20210619.1520)
 -->
<!-- Title: dependencies Pages: 1 -->
<svg width="942pt" height="247pt"
 viewBox="0.00 0.00 942.00 246.80" xmlns="http://www.w3.org/2000/svg" xmlns:xlink="http://www.w3.org/1999/xlink">
<g id="graph0" class="graph" transform="scale(1 1) rotate(0) translate(4 242.8)">
<title>dependencies</title>
<polygon fill="white" stroke="transparent" points="-4,4 -4,-242.8 938,-242.8 938,4 -4,4"/>
<text text-anchor="middle" x="467" y="-8.2" font-family="sans-serif" font-size="14.00">dependencies</text>
<g id="clust1" class="cluster">
<title>cluster_AppModule</title>
<polygon fill="none" stroke="black" stroke-dasharray="1,5" points="8,-32.8 8,-230.8 926,-230.8 926,-32.8 8,-32.8"/>
</g>
<g id="clust7" class="cluster">
<title>cluster_AppModule_imports</title>
<polygon fill="none" stroke="black" points="643,-40.8 643,-92.8 918,-92.8 918,-40.8 643,-40.8"/>
</g>
<g id="clust9" class="cluster">
<title>cluster_AppModule_bootstrap</title>
<polygon fill="none" stroke="black" points="410,-170.8 410,-222.8 534,-222.8 534,-170.8 410,-170.8"/>
</g>
<g id="clust2" class="cluster">
<title>cluster_AppModule_declarations</title>
<polygon fill="none" stroke="black" points="16,-40.8 16,-92.8 635,-92.8 635,-40.8 16,-40.8"/>
</g>
<!-- AddNewTaskComponent -->
<g id="node1" class="node">
<title>AddNewTaskComponent</title>
<polygon fill="#ffffb3" stroke="black" points="626.58,-84.8 467.42,-84.8 467.42,-48.8 626.58,-48.8 626.58,-84.8"/>
<text text-anchor="middle" x="547" y="-62.6" font-family="Times,serif" font-size="14.00">AddNewTaskComponent</text>
</g>
<!-- AppModule -->
<g id="node5" class="node">
<title>AppModule</title>
<polygon fill="#8dd3c7" stroke="black" points="513.66,-149.8 510.66,-153.8 489.66,-153.8 486.66,-149.8 430.34,-149.8 430.34,-113.8 513.66,-113.8 513.66,-149.8"/>
<text text-anchor="middle" x="472" y="-127.6" font-family="Times,serif" font-size="14.00">AppModule</text>
</g>
<!-- AddNewTaskComponent&#45;&gt;AppModule -->
<g id="edge1" class="edge">
<title>AddNewTaskComponent&#45;&gt;AppModule</title>
<path fill="none" stroke="black" d="M490.64,-84.91C490.64,-84.91 490.64,-103.79 490.64,-103.79"/>
<polygon fill="black" stroke="black" points="487.14,-103.79 490.64,-113.79 494.14,-103.79 487.14,-103.79"/>
</g>
<!-- AppComponent -->
<g id="node2" class="node">
<title>AppComponent</title>
<polygon fill="#ffffb3" stroke="black" points="449.94,-84.8 344.06,-84.8 344.06,-48.8 449.94,-48.8 449.94,-84.8"/>
<text text-anchor="middle" x="397" y="-62.6" font-family="Times,serif" font-size="14.00">AppComponent</text>
</g>
<!-- AppComponent&#45;&gt;AppModule -->
<g id="edge2" class="edge">
<title>AppComponent&#45;&gt;AppModule</title>
<path fill="none" stroke="black" d="M439.95,-84.91C439.95,-84.91 439.95,-103.79 439.95,-103.79"/>
<polygon fill="black" stroke="black" points="436.45,-103.79 439.95,-113.79 443.45,-103.79 436.45,-103.79"/>
</g>
<!-- TaskDetailsComponent -->
<g id="node3" class="node">
<title>TaskDetailsComponent</title>
<polygon fill="#ffffb3" stroke="black" points="326.2,-84.8 177.8,-84.8 177.8,-48.8 326.2,-48.8 326.2,-84.8"/>
<text text-anchor="middle" x="252" y="-62.6" font-family="Times,serif" font-size="14.00">TaskDetailsComponent</text>
</g>
<!-- TaskDetailsComponent&#45;&gt;AppModule -->
<g id="edge3" class="edge">
<title>TaskDetailsComponent&#45;&gt;AppModule</title>
<path fill="none" stroke="black" d="M252,-84.82C252,-102.17 252,-125.8 252,-125.8 252,-125.8 420.1,-125.8 420.1,-125.8"/>
<polygon fill="black" stroke="black" points="420.1,-129.3 430.1,-125.8 420.1,-122.3 420.1,-129.3"/>
</g>
<!-- TasksListComponent -->
<g id="node4" class="node">
<title>TasksListComponent</title>
<polygon fill="#ffffb3" stroke="black" points="159.77,-84.8 24.23,-84.8 24.23,-48.8 159.77,-48.8 159.77,-84.8"/>
<text text-anchor="middle" x="92" y="-62.6" font-family="Times,serif" font-size="14.00">TasksListComponent</text>
</g>
<!-- TasksListComponent&#45;&gt;AppModule -->
<g id="edge4" class="edge">
<title>TasksListComponent&#45;&gt;AppModule</title>
<path fill="none" stroke="black" d="M92,-85.08C92,-106.12 92,-137.8 92,-137.8 92,-137.8 420.25,-137.8 420.25,-137.8"/>
<polygon fill="black" stroke="black" points="420.25,-141.3 430.25,-137.8 420.25,-134.3 420.25,-141.3"/>
</g>
<!-- AppComponent  -->
<g id="node8" class="node">
<title>AppComponent </title>
<polygon fill="#80b1d3" stroke="black" points="526.44,-214.8 417.56,-214.8 417.56,-178.8 526.44,-178.8 526.44,-214.8"/>
<text text-anchor="middle" x="472" y="-192.6" font-family="Times,serif" font-size="14.00">AppComponent </text>
</g>
<!-- AppModule&#45;&gt;AppComponent  -->
<g id="edge7" class="edge">
<title>AppModule&#45;&gt;AppComponent </title>
<path fill="none" stroke="black" stroke-dasharray="1,5" d="M472,-149.91C472,-149.91 472,-168.79 472,-168.79"/>
<polygon fill="black" stroke="black" points="468.5,-168.79 472,-178.79 475.5,-168.79 468.5,-168.79"/>
</g>
<!-- AppRoutingModule -->
<g id="node6" class="node">
<title>AppRoutingModule</title>
<polygon fill="#8dd3c7" stroke="black" points="910.27,-84.8 907.27,-88.8 886.27,-88.8 883.27,-84.8 781.73,-84.8 781.73,-48.8 910.27,-48.8 910.27,-84.8"/>
<text text-anchor="middle" x="846" y="-62.6" font-family="Times,serif" font-size="14.00">AppRoutingModule</text>
</g>
<!-- AppRoutingModule&#45;&gt;AppModule -->
<g id="edge5" class="edge">
<title>AppRoutingModule&#45;&gt;AppModule</title>
<path fill="none" stroke="black" d="M846,-85.08C846,-106.12 846,-137.8 846,-137.8 846,-137.8 523.81,-137.8 523.81,-137.8"/>
<polygon fill="black" stroke="black" points="523.81,-134.3 513.81,-137.8 523.81,-141.3 523.81,-134.3"/>
</g>
<!-- MaterialsModule -->
<g id="node7" class="node">
<title>MaterialsModule</title>
<polygon fill="#8dd3c7" stroke="black" points="763.42,-84.8 760.42,-88.8 739.42,-88.8 736.42,-84.8 650.58,-84.8 650.58,-48.8 763.42,-48.8 763.42,-84.8"/>
<text text-anchor="middle" x="707" y="-62.6" font-family="Times,serif" font-size="14.00">MaterialsModule</text>
</g>
<!-- MaterialsModule&#45;&gt;AppModule -->
<g id="edge6" class="edge">
<title>MaterialsModule&#45;&gt;AppModule</title>
<path fill="none" stroke="black" d="M707,-84.82C707,-102.17 707,-125.8 707,-125.8 707,-125.8 523.74,-125.8 523.74,-125.8"/>
<polygon fill="black" stroke="black" points="523.74,-122.3 513.74,-125.8 523.74,-129.3 523.74,-122.3"/>
</g>
</g>
</svg>
