<?xml version="1.0" encoding="UTF-8" standalone="no"?>
<!DOCTYPE svg PUBLIC "-//W3C//DTD SVG 1.1//EN"
 "http://www.w3.org/Graphics/SVG/1.1/DTD/svg11.dtd">
<!-- Generated by graphviz version 2.47.3 (20210619.1520)
 -->
<!-- Title: dependencies Pages: 1 -->
<svg width="942pt" height="247pt"
 viewBox="0.00 0.00 942.00 246.80" xmlns="http://www.w3.org/2000/svg" xmlns:xlink="http://www.w3.org/1999/xlink">
<g id="graph0" class="graph" transform="scale(1 1) rotate(0) translate(4 242.8)">
<title>dependencies</title>
<polygon fill="white" stroke="transparent" points="-4,4 -4,-242.8 938,-242.8 938,4 -4,4"/>
<text text-anchor="middle" x="467" y="-8.2" font-family="sans-serif" font-size="14.00">dependencies</text>
<g id="clust1" class="cluster">
<title>cluster_AppModule</title>
<polygon fill="none" stroke="black" stroke-dasharray="1,5" points="8,-32.8 8,-230.8 926,-230.8 926,-32.8 8,-32.8"/>
</g>
<g id="clust2" class="cluster">
<title>cluster_AppModule_declarations</title>
<polygon fill="none" stroke="black" points="299,-40.8 299,-92.8 918,-92.8 918,-40.8 299,-40.8"/>
</g>
<g id="clust7" class="cluster">
<title>cluster_AppModule_imports</title>
<polygon fill="none" stroke="black" points="16,-40.8 16,-92.8 291,-92.8 291,-40.8 16,-40.8"/>
</g>
<g id="clust9" class="cluster">
<title>cluster_AppModule_bootstrap</title>
<polygon fill="none" stroke="black" points="393,-170.8 393,-222.8 517,-222.8 517,-170.8 393,-170.8"/>
</g>
<!-- AddNewTaskComponent -->
<g id="node1" class="node">
<title>AddNewTaskComponent</title>
<polygon fill="#ffffb3" stroke="black" points="909.58,-84.8 750.42,-84.8 750.42,-48.8 909.58,-48.8 909.58,-84.8"/>
<text text-anchor="middle" x="830" y="-62.6" font-family="Times,serif" font-size="14.00">AddNewTaskComponent</text>
</g>
<!-- AppModule -->
<g id="node5" class="node">
<title>AppModule</title>
<polygon fill="#8dd3c7" stroke="black" points="496.66,-149.8 493.66,-153.8 472.66,-153.8 469.66,-149.8 413.34,-149.8 413.34,-113.8 496.66,-113.8 496.66,-149.8"/>
<text text-anchor="middle" x="455" y="-127.6" font-family="Times,serif" font-size="14.00">AppModule</text>
</g>
<!-- AddNewTaskComponent&#45;&gt;AppModule -->
<g id="edge1" class="edge">
<title>AddNewTaskComponent&#45;&gt;AppModule</title>
<path fill="none" stroke="black" d="M830,-85.08C830,-106.12 830,-137.8 830,-137.8 830,-137.8 506.93,-137.8 506.93,-137.8"/>
<polygon fill="black" stroke="black" points="506.93,-134.3 496.93,-137.8 506.93,-141.3 506.93,-134.3"/>
</g>
<!-- AppComponent -->
<g id="node2" class="node">
<title>AppComponent</title>
<polygon fill="#ffffb3" stroke="black" points="732.94,-84.8 627.06,-84.8 627.06,-48.8 732.94,-48.8 732.94,-84.8"/>
<text text-anchor="middle" x="680" y="-62.6" font-family="Times,serif" font-size="14.00">AppComponent</text>
</g>
<!-- AppComponent&#45;&gt;AppModule -->
<g id="edge2" class="edge">
<title>AppComponent&#45;&gt;AppModule</title>
<path fill="none" stroke="black" d="M680,-84.82C680,-102.17 680,-125.8 680,-125.8 680,-125.8 506.79,-125.8 506.79,-125.8"/>
<polygon fill="black" stroke="black" points="506.79,-122.3 496.79,-125.8 506.79,-129.3 506.79,-122.3"/>
</g>
<!-- TaskDetailsComponent -->
<g id="node3" class="node">
<title>TaskDetailsComponent</title>
<polygon fill="#ffffb3" stroke="black" points="609.2,-84.8 460.8,-84.8 460.8,-48.8 609.2,-48.8 609.2,-84.8"/>
<text text-anchor="middle" x="535" y="-62.6" font-family="Times,serif" font-size="14.00">TaskDetailsComponent</text>
</g>
<!-- TaskDetailsComponent&#45;&gt;AppModule -->
<g id="edge3" class="edge">
<title>TaskDetailsComponent&#45;&gt;AppModule</title>
<path fill="none" stroke="black" d="M478.87,-84.91C478.87,-84.91 478.87,-103.79 478.87,-103.79"/>
<polygon fill="black" stroke="black" points="475.37,-103.79 478.87,-113.79 482.37,-103.79 475.37,-103.79"/>
</g>
<!-- TasksListComponent -->
<g id="node4" class="node">
<title>TasksListComponent</title>
<polygon fill="#ffffb3" stroke="black" points="442.77,-84.8 307.23,-84.8 307.23,-48.8 442.77,-48.8 442.77,-84.8"/>
<text text-anchor="middle" x="375" y="-62.6" font-family="Times,serif" font-size="14.00">TasksListComponent</text>
</g>
<!-- TasksListComponent&#45;&gt;AppModule -->
<g id="edge4" class="edge">
<title>TasksListComponent&#45;&gt;AppModule</title>
<path fill="none" stroke="black" d="M428.03,-84.91C428.03,-84.91 428.03,-103.79 428.03,-103.79"/>
<polygon fill="black" stroke="black" points="424.53,-103.79 428.03,-113.79 431.53,-103.79 424.53,-103.79"/>
</g>
<!-- AppComponent  -->
<g id="node8" class="node">
<title>AppComponent </title>
<polygon fill="#80b1d3" stroke="black" points="509.44,-214.8 400.56,-214.8 400.56,-178.8 509.44,-178.8 509.44,-214.8"/>
<text text-anchor="middle" x="455" y="-192.6" font-family="Times,serif" font-size="14.00">AppComponent </text>
</g>
<!-- AppModule&#45;&gt;AppComponent  -->
<g id="edge7" class="edge">
<title>AppModule&#45;&gt;AppComponent </title>
<path fill="none" stroke="black" stroke-dasharray="1,5" d="M455,-149.91C455,-149.91 455,-168.79 455,-168.79"/>
<polygon fill="black" stroke="black" points="451.5,-168.79 455,-178.79 458.5,-168.79 451.5,-168.79"/>
</g>
<!-- AppRoutingModule -->
<g id="node6" class="node">
<title>AppRoutingModule</title>
<polygon fill="#8dd3c7" stroke="black" points="283.27,-84.8 280.27,-88.8 259.27,-88.8 256.27,-84.8 154.73,-84.8 154.73,-48.8 283.27,-48.8 283.27,-84.8"/>
<text text-anchor="middle" x="219" y="-62.6" font-family="Times,serif" font-size="14.00">AppRoutingModule</text>
</g>
<!-- AppRoutingModule&#45;&gt;AppModule -->
<g id="edge5" class="edge">
<title>AppRoutingModule&#45;&gt;AppModule</title>
<path fill="none" stroke="black" d="M219,-84.82C219,-102.17 219,-125.8 219,-125.8 219,-125.8 403.08,-125.8 403.08,-125.8"/>
<polygon fill="black" stroke="black" points="403.08,-129.3 413.08,-125.8 403.08,-122.3 403.08,-129.3"/>
</g>
<!-- MaterialsModule -->
<g id="node7" class="node">
<title>MaterialsModule</title>
<polygon fill="#8dd3c7" stroke="black" points="136.42,-84.8 133.42,-88.8 112.42,-88.8 109.42,-84.8 23.58,-84.8 23.58,-48.8 136.42,-48.8 136.42,-84.8"/>
<text text-anchor="middle" x="80" y="-62.6" font-family="Times,serif" font-size="14.00">MaterialsModule</text>
</g>
<!-- MaterialsModule&#45;&gt;AppModule -->
<g id="edge6" class="edge">
<title>MaterialsModule&#45;&gt;AppModule</title>
<path fill="none" stroke="black" d="M80,-85.08C80,-106.12 80,-137.8 80,-137.8 80,-137.8 403.07,-137.8 403.07,-137.8"/>
<polygon fill="black" stroke="black" points="403.07,-141.3 413.07,-137.8 403.07,-134.3 403.07,-141.3"/>
</g>
</g>
</svg>
